<?xml version="1.0" standalone="no"?>
<!DOCTYPE svg PUBLIC "-//W3C//DTD SVG 20010904//EN"
 "http://www.w3.org/TR/2001/REC-SVG-20010904/DTD/svg10.dtd">
<svg version="1.0" xmlns="http://www.w3.org/2000/svg"
 width="1024.000000pt" height="1024.000000pt" viewBox="0 0 1024.000000 1024.000000"
 preserveAspectRatio="xMidYMid meet">
<metadata>
Created by potrace 1.14, written by Peter Selinger 2001-2017
</metadata>
<g transform="translate(0.000000,1024.000000) scale(0.100000,-0.100000)"
fill="#000000" stroke="none">
<path d="M0 5120 l0 -5120 5120 0 5120 0 0 5120 0 5120 -5120 0 -5120 0 0
-5120z m5218 2847 c65 -33 2724 -2674 2753 -2735 30 -60 30 -143 1 -203 -15
-30 -135 -157 -390 -413 l-369 -368 -1049 1041 c-577 573 -1051 1041 -1054
1041 -3 0 -277 -270 -610 -599 l-605 -599 120 -122 c66 -67 339 -338 607 -602
l488 -480 371 366 c205 201 375 366 378 366 3 -1 204 -196 446 -436 l440 -434
-745 -741 c-570 -567 -756 -746 -790 -762 -64 -29 -146 -27 -205 4 -69 36
-2726 2675 -2756 2737 -30 61 -30 143 0 204 16 34 354 375 1369 1382 741 736
1356 1343 1367 1349 70 40 159 41 233 4z"/>
</g>
</svg>
