<svg width="120" height="120" viewBox="0 0 120 120" fill="none" xmlns="http://www.w3.org/2000/svg">
<rect width="120" height="120" rx="12" fill="#E9FBF7"/>
<path d="M59.28 83L39.12 27.4H30.88L10.72 83H17.52L23.28 67.08H46.8L52.56 83H59.28ZM35.04 34.68L44.72 61.48H25.36L35.04 34.68ZM98.8988 49C95.6988 43.56 90.1788 40.36 83.0588 40.36C71.1388 40.36 62.3388 49.4 62.3388 61.88C62.3388 74.52 71.0588 83.88 83.0588 83.88C90.1788 83.88 95.6988 80.52 98.8988 74.92V83H105.219V40.84H98.8988V49ZM83.8588 77.88C75.3788 77.88 69.0588 71.08 69.0588 61.88C69.0588 52.84 75.3788 45.96 83.8588 45.96C92.6588 45.96 98.6588 52.52 98.6588 61.88C98.6588 71.32 92.5788 77.88 83.8588 77.88Z" fill="#1B5951"/>
</svg>
