<svg xmlns="http://www.w3.org/2000/svg" viewBox="0 0 40 40"><path fill="none" d="M0 0h40v40H0z"/><path fill="#fa9319" d="M30 25c-3.31 0-6 2.69-6 6 0 1.79.79 3.4 2.04 4.5.42.38.91.7 1.43.94.77.36 1.62.56 2.53.56s1.76-.2 2.53-.56a5.71 5.71 0 0 0 1.43-.94A5.982 5.982 0 0 0 36 31c0-3.31-2.69-6-6-6z"/><path fill="#fae052" d="M33.5 18.5a.5.5 0 0 0-.5.5v1.144c0 .472-.425.856-.946.856H31.5c0-2.851-1.251-5.374-3.183-7.022-.055-.048-.109-.097-.166-.144a8.498 8.498 0 0 0-.567-.416 7.966 7.966 0 0 0-.367-.24c-.083-.05-.159-.112-.244-.16 0 .008-.002.015-.003.022-.159-.09-.313-.188-.478-.266a7.89 7.89 0 0 0-3.4-.774h-6.388A3.998 3.998 0 0 0 13 9.5v3.06l-.008.002c-.076.03-.144.073-.219.105-.24.104-.478.214-.707.34-.134.074-.261.158-.39.239-.17.107-.338.216-.5.335a8.617 8.617 0 0 0-.821.688c-.117.11-.234.218-.344.335-.141.149-.272.309-.403.469-.083.101-.177.193-.256.298h.01A9.148 9.148 0 0 0 7.988 18H7.25C6.56 18 6 18.56 6 19.25v3.5c0 .69.56 1.25 1.25 1.25h.738c.772 2.336 2.412 4.228 4.512 5.225a7.89 7.89 0 0 0 3.4.775h7.175c.475-3.401 3.395-6.031 6.925-6.031.334 0 .661.032.983.077.22-.653.389-1.333.463-2.047h.608C33.127 22 34 21.167 34 20.144V19a.5.5 0 0 0-.5-.5zm-20.375.5a1.125 1.125 0 1 1 0-2.25 1.125 1.125 0 0 1 0 2.25z"/><circle cx="13.125" cy="17.875" r="1.125" fill="none"/><path fill="#fa9319" d="M12.5 32.75a1.25 1.25 0 0 0 2.5 0v-2.803a7.916 7.916 0 0 1-2.5-.721v3.524z"/><path fill="#000d6e" d="M23.5 14h-6a.5.5 0 0 0 0 1h6a.5.5 0 0 0 0-1z"/><path fill="none" d="M32.202 31.929c.091 0 .171-.048.243-.113-.072.065-.152.113-.244.113h.001zM31.908 32.165zM32.509 30.783c-.081-.105-.185-.174-.302-.176l-.003-.297h-.002l.004.3c.118-.001.222.068.303.173zM32.041 31.882zM27.805 31.928c-.097 0-.181-.052-.255-.125.074.073.158.125.254.125a.342.342 0 0 0 .175-.051 2.51 2.51 0 0 0-.001-.003.329.329 0 0 1-.173.054zM27.801 29.764l-.002-.284-.002.003.002.282v.006l.005.627-.003-.629v-.005z"/><path fill="none" d="M27.801 29.764l-.002-.284-.003.003.002.282v.006l.005.627-.003-.629.001-.005zM32.509 30.783c-.081-.105-.185-.174-.302-.176l-.003-.297h-.002l.004.3c.118-.001.222.068.303.173zM27.805 31.928c-.097 0-.181-.052-.255-.125.074.073.158.125.254.125a.342.342 0 0 0 .175-.051 2.51 2.51 0 0 0-.001-.003.329.329 0 0 1-.173.054zM31.086 33.785l-.013-.199-.033-.471.033.471zM31.908 32.165zM28.912 33.902l.004.005-.003-.005zM32.202 31.929c.091 0 .171-.048.243-.113-.072.065-.152.113-.244.113h.001zM32.041 31.882zM31.085 33.906l.001-.002zM31.086 33.904"/><path fill="#000d6e" d="M27.47 34.25c.06-.02.12-.04.18-.05l1.26-.3.001.001.001-.017.033-.789a2.372 2.372 0 0 1-.771-.808c-.008-.013-.018-.024-.026-.038l-.01-.022a2.564 2.564 0 0 1-.161-.348.342.342 0 0 1-.175.051c-.096 0-.18-.052-.254-.125l-.006-.005a.751.751 0 0 1-.203-.533c0-.182.051-.348.135-.468.084-.12.2-.195.329-.195v-.205l-.005-.627v-.006l-.002-.282.003-.003.01-.01c.365-.175.983-.535 1.837-.086.73.384 1.962.753 2.557.925h.002l.003.297c.117.002.221.071.302.176a.79.79 0 0 1 .155.483.74.74 0 0 1-.22.55.361.361 0 0 1-.243.113H32.2h-.001l-.009-.003a.36.36 0 0 1-.149-.043c-.037.099-.085.191-.133.283a2.42 2.42 0 0 1-.868.95l.033.471.013.199v.12l.004-.004 1.26.3c.06.01.12.03.18.05.18.055.329.121.476.187.04.018.091.031.129.05v-3.734c0-.098-.015-.189-.022-.285a4.035 4.035 0 0 0-.212-1.064c-.012-.035-.028-.066-.041-.101-.049-.127-.098-.254-.159-.372a3.23 3.23 0 0 0-.269-.44c-.012-.022-.027-.043-.041-.065l-.047-.074c-.429-.669-1.302-1.216-2.32-1.216-.025 0-.048.007-.073.008a2.813 2.813 0 0 0-.975.204 2.837 2.837 0 0 0-.993.656 2.868 2.868 0 0 0-.414.443c-.01.013-.02.023-.029.036-.123.165-.23.349-.324.544l-.019.039a3.785 3.785 0 0 0-.191.537c-.011.038-.029.07-.039.108l-.005.02c-.03.118-.039.245-.058.368-.019.122-.049.239-.058.366-.006.094-.014.188-.014.285v3.753c.004-.002.01-.001.014-.003.178-.096.391-.174.624-.252z"/><path fill="#fae052" d="M33.96 35.5c-.1-.47-.38-.78-.82-1.01-.039-.02-.092-.034-.134-.053a3.72 3.72 0 0 0-.476-.187v2.19a5.71 5.71 0 0 0 1.43-.94zM27.47 34.25a3.992 3.992 0 0 0-.623.252l-.017.008c-.42.22-.7.53-.79.99.42.38.91.7 1.43.94v-2.19zM31.086 33.903v-.118l-.013-.199-.033-.471c.105-.064.205-.139.299-.22.23-.198.422-.447.569-.73.048-.092.096-.184.133-.283a.334.334 0 0 0 .148.043l.009.003h.001c.092 0 .172-.048.244-.113a.74.74 0 0 0 .22-.55.796.796 0 0 0-.155-.483c-.081-.105-.185-.174-.302-.174l-.004-.3c-.595-.172-1.828-.542-2.557-.925-.854-.449-1.472-.089-1.837.086l-.01.01.002.284v.004l.003.629v.205c-.129 0-.245.075-.329.195a.824.824 0 0 0-.135.468c0 .224.083.413.203.533l.006.005c.074.072.158.125.255.125.06 0 .119-.02.172-.053.045.123.1.24.162.351l.01.022.026.038c.196.335.46.612.771.808l-.033.789-.001.017.001.002.003.004c.24.356.628.583 1.084.583a1.295 1.295 0 0 0 1.088-.585z"/><path fill="#fa9319" d="M32.53 34.25c-.06-.02-.12-.04-.18-.05l-1.26-.3a.008.008 0 0 1-.004.004l-.002.002c-.24.356-.628.584-1.085.584-.457 0-.844-.228-1.084-.583l-.004-.004-.001-.002-.001-.001-1.26.3c-.06.01-.12.03-.18.05v2.19c.771.36 1.621.56 2.531.56s1.76-.2 2.53-.56v-2.19z"/></svg>